<?xml version="1.0" encoding="UTF-8"?>
<svg version="1.1" xmlns="http://www.w3.org/2000/svg" width="2000" height="1500">
<path d="M0 0 C660 0 1320 0 2000 0 C2000 495 2000 990 2000 1500 C1340 1500 680 1500 0 1500 C0 1005 0 510 0 0 Z " fill="#0C163C" transform="translate(0,0)"/>
<path d="M0 0 C323.4 0 646.8 0 980 0 C980 323.4 980 646.8 980 980 C656.6 980 333.2 980 0 980 C0 656.6 0 333.2 0 0 Z " fill="#0C163C" transform="translate(510,260)"/>
<path d="M0 0 C323.4 0 646.8 0 980 0 C980 323.4 980 646.8 980 980 C656.6 980 333.2 980 0 980 C0 656.6 0 333.2 0 0 Z M23 23 C23 331.22 23 639.44 23 957 C331.22 957 639.44 957 957 957 C957 648.78 957 340.56 957 23 C648.78 23 340.56 23 23 23 Z " fill="#FFFCFC" transform="translate(510,260)"/>
<path d="M0 0 C34.98 0 69.96 0 106 0 C126.62481423 52.70785858 126.62481423 52.70785858 132.39096069 67.6081543 C133.5206938 70.52747978 134.65150136 73.44638761 135.7824707 76.36523438 C137.38725143 80.50718105 138.99166851 84.64926823 140.59570312 88.79150391 C144.62442155 99.19506473 148.65527879 109.59779632 152.6875 120 C153.08411835 121.02324371 153.48073669 122.04648743 153.88937378 123.10073853 C159.24166318 136.90751797 164.61143902 150.70733886 170 164.5 C177.8086866 184.48725979 185.56756137 204.49370186 193.31971741 224.50294495 C196.65734392 233.11732036 199.99852639 241.73031346 203.34042358 250.34303284 C206.525199 258.55127889 209.70738491 266.7605258 212.8878479 274.97044373 C214.79795842 279.90058219 216.71055444 284.82973607 218.62727356 289.75730896 C219.3763276 291.6841805 220.12395965 293.61159536 220.87084961 295.53930664 C221.71545296 297.71917575 222.56241263 299.89813421 223.41235352 302.07592773 C223.76483154 302.98802002 224.11730957 303.9001123 224.48046875 304.83984375 C224.77848389 305.60675537 225.07649902 306.37366699 225.38354492 307.16381836 C226 309 226 309 226 311 C226.66 311 227.32 311 228 311 C228.1471344 310.45559265 228.2942688 309.9111853 228.44586182 309.35028076 C230.74561824 301.2543869 233.85568947 293.50406804 236.984375 285.703125 C237.58987678 284.18421268 238.19498896 282.66514499 238.79974365 281.14593506 C240.09736634 277.88846257 241.39760809 274.63205295 242.69995117 271.37646484 C244.78659363 266.16020229 246.86736937 260.94161174 248.94726562 255.72265625 C251.48753574 249.34954623 254.02912662 242.97696625 256.57246399 236.60507965 C261.01078967 225.48522265 265.43880264 214.36130075 269.859375 203.234375 C270.3341714 202.03928472 270.3341714 202.03928472 270.81855965 200.82005119 C272.09250988 197.61329945 273.36637496 194.40651391 274.64010715 191.19967556 C276.8783503 185.56452873 279.11748079 179.92973518 281.35717773 174.29516602 C281.67645831 173.49192304 281.99573889 172.68868006 282.32469463 171.86109638 C282.97036878 170.23672184 283.61604412 168.61234776 284.26172066 166.98797417 C289.4877183 153.84032048 294.71140293 140.69174999 299.93318939 127.54242325 C312.59659657 95.65458358 325.2715773 63.77147653 338.01000595 31.913517 C338.86973021 29.76318075 339.7291617 27.61272769 340.58853149 25.46224976 C341.9152489 22.14256452 343.242915 18.82326038 344.57140923 15.50428581 C345.28608517 13.71836092 345.99999408 11.93212914 346.71388245 10.14588928 C347.13556198 9.09324387 347.55724152 8.04059845 347.99169922 6.95605469 C348.35786346 6.04104187 348.72402771 5.12602905 349.10128784 4.18328857 C350 2 350 2 351 0 C384.66 0 418.32 0 453 0 C450.97299369 6.08101892 448.87644513 11.98001926 446.4375 17.88671875 C446.09416626 18.72483597 445.75083252 19.56295319 445.39709473 20.4264679 C444.26762297 23.18134273 443.13386717 25.93443167 442 28.6875 C441.19575477 30.64639867 440.39172251 32.6053848 439.58789062 34.56445312 C433.12153486 50.31388322 426.61651624 66.04741642 420.109375 81.7800293 C414.70878477 94.84084701 409.3437347 107.91582681 404 121 C397.42713005 137.09327423 390.8108 153.16810696 384.16748047 169.23242188 C378.75807937 182.3133772 373.3662159 195.40126988 368 208.5 C362.23449785 222.57337277 356.43705036 236.63329008 350.625 250.6875 C344.38433815 265.77855503 338.17467911 280.88182918 332 296 C325.03788143 313.0461486 318.02534249 330.07096121 310.98681641 347.08569336 C307.16454351 356.32740776 303.35020233 365.57218014 299.5625 374.828125 C299.20604401 375.69886154 298.84958801 376.56959808 298.48233032 377.46672058 C296.82355203 381.51956544 295.1666633 385.57316445 293.51318359 389.62817383 C288.80282056 401.146294 283.90417229 412.55693132 279 424 C243.36 424 207.72 424 171 424 C152.68746907 379.36320585 152.68746907 379.36320585 146.4375 363.875 C145.73205479 362.12926417 145.0264844 360.38357892 144.32080078 358.63793945 C143.24739666 355.98265509 142.17404789 353.3273486 141.10107422 350.67189026 C137.53272284 341.84091819 133.95462739 333.01390614 130.375 324.1875 C129.13409792 321.12761093 127.89321706 318.06771325 126.65234375 315.0078125 C126.34779266 314.25684799 126.04324158 313.50588348 125.72946167 312.73216248 C123.65279879 307.611102 121.57796209 302.48930431 119.50390625 297.3671875 C112.57934597 280.26901448 105.63092164 263.1807213 98.6663208 246.09881592 C91.10592998 227.55541391 83.56256134 209.00539289 76.0625 190.4375 C75.47204391 188.97574844 75.47204391 188.97574844 74.86965942 187.48446655 C73.32410959 183.65802253 71.77869114 179.83152547 70.23344421 176.00495911 C66.72349656 167.31363027 63.20831754 158.62443113 59.6875 149.9375 C59.39386566 149.21296631 59.10023132 148.48843262 58.79769897 147.74194336 C54.8488077 138.0005491 50.8868263 128.26452593 46.91796875 118.53125 C46.4700296 117.4326918 46.02209045 116.33413361 45.56057739 115.20228577 C44.63470535 112.93166066 43.70883254 110.66103587 42.78295898 108.39041138 C42.31833252 107.25095062 41.85370605 106.11148987 41.375 104.9375 C40.91182373 103.80166473 40.44864746 102.66582947 39.97143555 101.49557495 C31.98502634 81.90735772 24.04703375 62.29988473 16.14013672 42.67944336 C15.73315552 41.6700621 15.32617432 40.66068085 14.90686035 39.62071228 C14.11156115 37.64786903 13.31686783 35.6747814 12.52282715 33.70143127 C10.50619248 28.69771854 8.46777046 23.70422061 6.39697266 18.72265625 C5.97712601 17.70929199 5.55727936 16.69592773 5.12471008 15.65185547 C4.32325778 13.72060006 3.51747008 11.7911363 2.70671082 9.86376953 C2.35079361 9.00509277 1.9948764 8.14641602 1.62817383 7.26171875 C1.31278152 6.50850342 0.99738922 5.75528809 0.67243958 4.97924805 C0 3 0 3 0 0 Z " fill="#FEFBFB" transform="translate(666,517)"/>
<path d="M0 0 C32.67 0 65.34 0 99 0 C99 140.25 99 280.5 99 425 C66.33 425 33.66 425 0 425 C0 284.75 0 144.5 0 0 Z " fill="#FEFBFB" transform="translate(1193,516)"/>
</svg>
